<?xml version="1.0"?>
<svg xmlns="http://www.w3.org/2000/svg" id="Capa_1" enable-background="new 0 0 512 512" height="512px" viewBox="0 0 512 512" width="512px"><g transform="matrix(1 0 0 1 110 0)"><g><g><path d="m231.952 63.613c0 18.126 6.533 34.975 17.733 49.001 3.211 4.022 9.419 4.022 12.63 0 11.2-14.025 17.733-30.874 17.733-49.001s-6.533-34.975-17.733-49.001c-3.211-4.022-9.419-4.022-12.63 0-11.2 14.026-17.733 30.875-17.733 49.001z" fill="#ffe09f" data-original="#FFE09F" class=""/><ellipse cx="294.408" cy="152.019" fill="#ffe09f" rx="49.886" ry="21.38" transform="matrix(.766 -.643 .643 .766 -28.851 224.748)" data-original="#FFE09F" class=""/><ellipse cx="217.779" cy="152.019" fill="#f6d190" rx="21.38" ry="49.886" transform="matrix(.643 -.766 .766 .643 -38.647 221.179)" data-original="#F6D190" class=""/><ellipse cx="298.856" cy="235.96" fill="#ffe09f" rx="55.678" ry="23.862" transform="matrix(.766 -.643 .643 .766 -81.755 247.235)" data-original="#FFE09F" class=""/><ellipse cx="213.331" cy="235.96" fill="#f6d190" rx="23.862" ry="55.678" transform="matrix(.643 -.766 .766 .643 -104.549 247.767)" data-original="#F6D190" class=""/><ellipse cx="303.608" cy="328.145" fill="#ffe09f" rx="61.864" ry="26.513" transform="matrix(.766 -.643 .643 .766 -139.887 271.845)" data-original="#FFE09F" class=""/><ellipse cx="208.58" cy="328.145" fill="#f6d190" rx="26.513" ry="61.864" transform="matrix(.643 -.766 .766 .643 -176.876 277.07)" data-original="#F6D190" class=""/><ellipse cx="306.971" cy="422.149" fill="#ffe09f" rx="65.396" ry="27.851" transform="matrix(.781 -.625 .625 .781 -196.515 284.515)" data-original="#FFE09F" class=""/><ellipse cx="205.216" cy="422.149" fill="#f6d190" rx="27.851" ry="65.396" transform="matrix(.625 -.781 .781 .625 -252.574 318.458)" data-original="#F6D190" class=""/></g><path d="m367.709 361.317c.033-4.142-3.298-7.526-7.44-7.56-.021 0-.041 0-.062 0-4.113 0-7.465 3.318-7.499 7.44-.039 4.834-.387 9.588-1.033 14.237-10.279-1.186-37.728-2.281-62.777 14.797-10.397 7.089-18.948 15.969-25.399 26.117v-40.86c25.962-1.64 49.485-11.863 66.789-29.167 18.732-18.732 29.175-44.75 29.404-73.262.034-4.142-3.297-7.526-7.439-7.56-.021 0-.041 0-.062 0-4.113 0-7.465 3.318-7.498 7.44-.034 4.245-.328 8.422-.873 12.511-9.976-1.068-34.951-1.746-57.777 13.817-9.102 6.206-16.682 13.889-22.544 22.642v-43.539c23.716-1.63 45.201-11.023 61.041-26.862 17.288-17.289 26.925-41.294 27.137-67.594.033-4.142-3.298-7.526-7.44-7.56-.021 0-.041 0-.062 0-4.113 0-7.465 3.318-7.499 7.44-.029 3.66-.292 7.258-.739 10.791-9.502-.932-31.604-1.219-52.034 12.349l-.716.483c-3.422 2.333-4.306 6.999-1.972 10.421 1.452 2.13 3.807 3.276 6.204 3.276 1.455 0 2.925-.422 4.218-1.304l.574-.386c15.321-10.175 32.306-10.587 40.527-10.037-3.757 12.047-10.118 22.827-18.805 31.514-13.029 13.028-30.75 20.851-50.434 22.43v-73.083c21.473-1.616 40.917-10.194 55.292-24.57 15.844-15.844 24.676-37.836 24.87-61.926.033-4.142-3.298-7.526-7.44-7.56-.021 0-.041 0-.062 0-4.113 0-7.465 3.318-7.499 7.44-.024 3.088-.208 6.118-.546 9.079-9.165-.812-29.309-.756-47.782 11.839-6.583 4.489-12.228 9.888-16.833 15.984v-17.839c15.52-16.799 24.048-37.657 24.048-59.083 0-22.406-9.306-44.202-26.203-61.373-1.408-1.432-3.334-2.239-5.344-2.239s-3.936.807-5.346 2.24c-16.897 17.171-26.203 38.967-26.203 61.373 0 21.427 8.528 42.284 24.048 59.083v17.839c-4.604-6.095-10.249-11.495-16.833-15.984-18.475-12.596-38.619-12.649-47.782-11.839-.339-2.961-.522-5.991-.546-9.079-.033-4.122-3.385-7.44-7.499-7.44-.021 0-.041 0-.062 0-4.142.034-7.473 3.418-7.44 7.56.193 24.09 9.026 46.082 24.87 61.926 14.375 14.375 33.819 22.954 55.292 24.57v36.428c-5.247-7.399-11.858-13.92-19.688-19.259-20.633-14.067-43.167-13.776-52.773-12.832-.446-3.531-.687-7.133-.716-10.792-.034-4.142-3.441-7.503-7.56-7.44-4.142.034-7.473 3.418-7.44 7.56.211 26.3 9.849 50.305 27.137 67.594 15.839 15.839 37.325 25.232 61.041 26.862v43.539c-5.861-8.753-13.442-16.436-22.544-22.642-22.827-15.564-47.801-14.886-57.777-13.817-.545-4.089-.839-8.267-.873-12.511-.033-4.122-3.384-7.44-7.498-7.44-.021 0-.042 0-.062 0-4.142.033-7.473 3.418-7.439 7.56.229 28.512 10.671 54.53 29.404 73.262 17.304 17.304 40.828 27.527 66.789 29.167v81.166c-24.174-1.61-45.978-11.059-61.932-27.013-10.822-10.822-18.658-24.334-23.084-39.452 9.172-.854 31.273-1.128 51.166 12.435 1.644 1.121 3.256 2.311 4.794 3.536 1.381 1.101 3.031 1.636 4.67 1.636 2.205 0 4.389-.968 5.87-2.826 2.582-3.239 2.049-7.958-1.189-10.54-1.828-1.457-3.743-2.87-5.693-4.2-25.047-17.077-52.484-15.982-62.766-14.798-.647-4.649-1.005-9.401-1.044-14.236-.033-4.122-3.385-7.44-7.499-7.44-.021 0-.041 0-.062 0-4.142.034-7.473 3.418-7.44 7.56.247 30.722 11.495 58.753 31.671 78.931 18.768 18.769 44.334 29.805 72.538 31.454v32.799c0 4.142 3.358 7.5 7.5 7.5s7.5-3.358 7.5-7.5v-32.798c28.204-1.649 53.77-12.686 72.538-31.454 20.177-20.178 31.424-48.209 31.671-78.931zm-73.215-49.656c14.298-9.749 30.012-11.657 40.125-11.657 2.335 0 4.373.102 6.024.232-4.094 13.583-11.206 25.724-20.96 35.479-14.174 14.174-33.384 22.769-54.739 24.631 2.273-20.028 12.577-37.113 29.55-48.685zm-5.711-174.716c11.656-7.948 24.488-9.499 32.729-9.499 1.258 0 2.409.036 3.433.091-3.376 10.482-9.015 19.79-16.76 27.535-11.44 11.44-26.288 18.283-43.297 20.032 2.193-15.668 10.494-29.022 23.895-38.159zm-84.968 18.128c-7.752-7.752-13.393-17.069-16.769-27.562 7.693-.444 22.615.191 36.171 9.434 13.401 9.137 21.702 22.491 23.895 38.16-17.009-1.75-31.857-8.592-43.297-20.032zm-5.749 85.829c-8.688-8.688-15.072-19.462-18.828-31.513 8.333-.558 25.65-.129 41.124 10.422 15.186 10.354 24.49 25.572 26.728 43.418-19.121-1.831-36.306-9.609-49.024-22.327zm-5.749 94.813c-9.76-9.76-16.874-21.908-20.967-35.5 8.767-.726 28.423-.644 46.155 11.446 16.973 11.572 27.277 28.657 29.551 48.685-21.355-1.863-40.565-10.457-54.739-24.631zm63.683-317.002c10.854 13.292 16.548 28.671 16.548 44.899 0 16.229-5.694 31.608-16.548 44.899-10.854-13.291-16.548-28.671-16.548-44.899 0-16.227 5.694-31.607 16.548-44.899zm8.985 437.856c2.307-22.206 13.609-41.156 32.365-53.944 15.619-10.649 32.773-12.737 43.822-12.737 2.922 0 5.417.146 7.343.318-4.427 15.112-12.265 28.616-23.083 39.435-15.629 15.628-36.863 25.037-60.447 26.928z" data-original="#000000" class="active-path" style="fill:#000000"/></g></g> </svg>
